<svg xmlns="http://www.w3.org/2000/svg" width="26" height="29" viewBox="0 0 31 33" fill="none">
<path d="M2.54261 32.3812C3.29343 32.7021 4.12352 32.7893 4.9246 32.6313C5.72568 32.4733 6.46056 32.0776 7.03336 31.4958L15.1252 23.4479L23.2171 31.4958C23.5944 31.8786 24.0439 32.1827 24.5395 32.3907C25.0352 32.5986 25.5671 32.7062 26.1046 32.7071C26.6571 32.7055 27.2038 32.5948 27.7134 32.3812C28.4703 32.0749 29.1173 31.5475 29.5699 30.8677C30.0224 30.188 30.2596 29.3877 30.2502 28.5711V6.875C30.2481 5.05231 29.523 3.30489 28.2342 2.01605C26.9453 0.727213 25.1979 0.0021833 23.3752 0L6.87524 0C5.05255 0.0021833 3.30513 0.727213 2.01629 2.01605C0.727452 3.30489 0.00242276 5.05231 0.000239451 6.875V28.5711C-0.00863366 29.3883 0.229282 30.1891 0.682877 30.8689C1.13647 31.5487 1.78463 32.0758 2.54261 32.3812Z" fill="white"/>
</svg>