<svg xmlns="http://www.w3.org/2000/svg" width="28" height="26" viewBox="0 0 30 28" fill="none">
<path d="M29.3647 12.7493C28.756 11.9169 27.8223 11.4383 26.8024 11.4383H26.2486V8.90926C26.2486 5.40019 23.445 2.54534 19.999 2.54534H13.6793C13.4868 2.54534 13.2918 2.49824 13.1206 2.41169L9.17703 0.403238C8.65955 0.139772 8.07958 0.00103813 7.49961 0.00103813H4.99974C2.24238 -0.000234656 0 2.28314 0 5.09091V21.6371C0 25.1462 2.80361 28.001 6.24968 28.001H21.9464C24.7287 28.001 27.1336 26.1784 27.9486 23.4101L29.8635 15.6257C30.1559 14.6304 29.9735 13.5829 29.3647 12.7493ZM2.49987 21.6371V5.09091C2.49987 3.68702 3.62106 2.54534 4.99974 2.54534H7.49961C7.6921 2.54534 7.88709 2.59243 8.05833 2.67898L12.0019 4.68743C12.5194 4.9509 13.0993 5.08963 13.6793 5.08963H19.999C22.0664 5.08963 23.7488 6.8028 23.7488 8.90799V11.437H10.7682C8.6433 11.437 6.7459 12.8103 6.03219 14.899L3.29483 23.9841C2.79736 23.3363 2.49987 22.5217 2.49987 21.6371ZM27.4536 14.9512L25.5387 22.7343C25.0587 24.3621 23.615 25.4555 21.9464 25.4555H6.24968C5.98969 25.4555 5.73595 25.4287 5.49097 25.3766L8.40832 15.6919C8.75705 14.6699 9.707 13.9839 10.7694 13.9839H26.8036C27.1061 13.9839 27.2823 14.162 27.3598 14.269C27.4373 14.3759 27.5548 14.5986 27.4536 14.9512Z" fill="#C4C4C4"/>
</svg>