<svg xmlns="http://www.w3.org/2000/svg" width="31" height="28" viewBox="0 0 31 28" fill="none">
<path d="M0.0346069 21.6364V5.09091C0.0346069 2.28327 2.27699 0 5.03435 0H7.53422C8.11419 0 8.69416 0.138727 9.21163 0.402182L13.1552 2.41055C13.3277 2.49836 13.5214 2.54418 13.7139 2.54418H20.0336C23.4796 2.54418 26.2833 5.39891 26.2833 8.90782H12.564C9.26663 8.90782 6.31053 11.1555 5.37183 14.3844L2.03075 26.2704C0.809567 25.1084 0.0346069 23.4678 0.0346069 21.6364ZM29.3993 12.7489C28.8006 11.9305 27.8882 11.4609 26.8895 11.4444C26.8707 11.4444 26.8557 11.4545 26.837 11.4545H12.564C10.3666 11.4545 8.39543 12.9525 7.77171 15.0971L4.24939 27.6245C4.89061 27.8511 5.56807 28 6.28428 28H21.981C24.7633 28 27.1682 26.1775 27.9832 23.4093L29.8981 15.6253C30.1906 14.63 30.0081 13.5825 29.3993 12.7489Z" fill="white"/>
</svg>