<svg xmlns="http://www.w3.org/2000/svg" width="26" height="29" viewBox="0 0 28 31" fill="none">
<path d="M24.356 30.5451C23.8852 30.5438 23.4193 30.4492 22.9853 30.2668C22.5512 30.0844 22.1576 29.8178 21.8272 29.4824L14 21.701L6.17281 29.4875C5.67013 29.9975 5.02545 30.3442 4.32282 30.4825C3.62019 30.6207 2.8922 30.5441 2.23377 30.2625C1.5688 29.9951 0.999931 29.5333 0.60146 28.9375C0.20299 28.3418 -0.00656624 27.6397 0.000156844 26.923V6.36356C0.000156844 4.67584 0.670601 3.05724 1.864 1.86384C3.0574 0.670445 4.676 0 6.36372 0L21.6363 0C22.4719 0 23.2994 0.164598 24.0715 0.484397C24.8436 0.804196 25.5451 1.27293 26.136 1.86384C26.7269 2.45476 27.1956 3.15627 27.5154 3.92833C27.8352 4.70039 27.9998 5.52789 27.9998 6.36356V26.923C28.007 27.6391 27.7981 28.3407 27.4006 28.9365C27.0031 29.5322 26.4353 29.9943 25.7713 30.2625C25.3231 30.45 24.8419 30.5461 24.356 30.5451ZM6.36372 2.54542C5.35108 2.54542 4.37993 2.94769 3.66389 3.66373C2.94785 4.37977 2.54558 5.35093 2.54558 6.36356V26.923C2.54512 27.135 2.60752 27.3425 2.72491 27.5191C2.84229 27.6957 3.00939 27.8336 3.20509 27.9153C3.40079 27.9971 3.61632 28.0189 3.82445 27.9782C4.03259 27.9375 4.22398 27.836 4.37447 27.6866L13.1091 19.0054C13.3476 18.7684 13.6701 18.6353 14.0064 18.6353C14.3426 18.6353 14.6652 18.7684 14.9036 19.0054L23.6281 27.684C23.7785 27.8335 23.9699 27.935 24.1781 27.9757C24.3862 28.0164 24.6017 27.9945 24.7974 27.9128C24.9931 27.8311 25.1602 27.6932 25.2776 27.5166C25.395 27.3399 25.4574 27.1325 25.4569 26.9204V6.36356C25.4569 5.35093 25.0547 4.37977 24.3386 3.66373C23.6226 2.94769 22.6514 2.54542 21.6388 2.54542H6.36372Z" fill="#C4C4C4"/>
</svg>