<svg width="30" height="30" viewBox="0 0 30 30" fill="none" xmlns="http://www.w3.org/2000/svg">
<g clip-path="url(#clip0_2_28)">
<path d="M15.0333 18.743C12.9623 18.743 11.2833 20.423 11.2833 22.4953V30H18.7833V22.4953C18.7833 20.423 17.1044 18.743 15.0333 18.743Z" fill="white"/>
<path d="M21.2833 22.4953V30H26.2833C28.3544 30 30.0333 28.32 30.0333 26.2477V14.8393C30.0336 14.1895 29.7813 13.5651 29.3296 13.0982L18.7071 1.6073C16.8328 -0.421892 13.6694 -0.546481 11.6415 1.32898C11.5452 1.4181 11.4524 1.51091 11.3634 1.6073L0.759595 13.0945C0.294243 13.5633 0.0331495 14.1973 0.0333253 14.8581V26.2477C0.0333253 28.32 1.71227 30 3.78333 30H8.78331V22.4953C8.80668 19.0847 11.5587 16.2995 14.8813 16.2193C18.3152 16.1364 21.2572 18.969 21.2833 22.4953Z" fill="white"/>
<path d="M15.0333 18.743C12.9623 18.743 11.2833 20.423 11.2833 22.4953V30H18.7833V22.4953C18.7833 20.423 17.1044 18.743 15.0333 18.743Z" fill="white"/>
</g>
<defs>
<clipPath id="clip0_2_28">
<rect width="30" height="30" fill="white" transform="translate(0.0333252)"/>
</clipPath>
</defs>
</svg>
