<svg width="27" height="27" viewBox="0 0 30 30" fill="none" xmlns="http://www.w3.org/2000/svg">
<path d="M28.9013 11.3163L19.42 1.82813C18.2466 0.657413 16.6571 0 15 0C13.3429 0 11.7535 0.657413 10.58 1.82813L1.09877 11.3163C0.749297 11.6637 0.472227 12.0771 0.283618 12.5325C0.0950091 12.9879 -0.001388 13.4762 1.50994e-05 13.9691V26.2478C1.50994e-05 27.2429 0.395103 28.1973 1.09836 28.901C1.80163 29.6047 2.75545 30 3.75002 30H26.25C27.2446 30 28.1984 29.6047 28.9017 28.901C29.6049 28.1973 30 27.2429 30 26.2478V13.9691C30.0014 13.4762 29.905 12.9879 29.7164 12.5325C29.5278 12.0771 29.2507 11.6637 28.9013 11.3163ZM18.75 27.4985H11.25V22.5781C11.25 21.5829 11.6451 20.6285 12.3484 19.9248C13.0516 19.2211 14.0055 18.8258 15 18.8258C15.9946 18.8258 16.9484 19.2211 17.6517 19.9248C18.3549 20.6285 18.75 21.5829 18.75 22.5781V27.4985ZM27.5 26.2478C27.5 26.5795 27.3683 26.8976 27.1339 27.1322C26.8995 27.3667 26.5815 27.4985 26.25 27.4985H21.25V22.5781C21.25 20.9195 20.5915 19.3288 19.4194 18.156C18.2473 16.9832 16.6576 16.3243 15 16.3243C13.3424 16.3243 11.7527 16.9832 10.5806 18.156C9.4085 19.3288 8.75002 20.9195 8.75002 22.5781V27.4985H3.75002C3.4185 27.4985 3.10055 27.3667 2.86613 27.1322C2.63171 26.8976 2.50002 26.5795 2.50002 26.2478V13.9691C2.50117 13.6377 2.63275 13.32 2.86627 13.0849L12.3475 3.60044C13.0521 2.89868 14.0058 2.50471 15 2.50471C15.9942 2.50471 16.9479 2.89868 17.6525 3.60044L27.1338 13.0886C27.3664 13.3228 27.4979 13.639 27.5 13.9691V26.2478Z" fill="#C4C4C4"/>
</svg>
