<svg xmlns="http://www.w3.org/2000/svg" width="28" height="25" viewBox="0 0 31 27" fill="none">
<path d="M21.9106 0C20.5036 0.0218848 19.1273 0.414649 17.9206 1.13863C16.714 1.86261 15.7198 2.89217 15.0383 4.12334C14.3569 2.89217 13.3627 1.86261 12.156 1.13863C10.9494 0.414649 9.5731 0.0218848 8.1661 0C5.92318 0.0974491 3.80999 1.07863 2.2882 2.72919C0.766412 4.37975 -0.040275 6.56551 0.044379 8.80895C0.044379 14.4904 6.02447 20.6954 11.0399 24.9025C12.1598 25.8435 13.5756 26.3594 15.0383 26.3594C16.501 26.3594 17.9169 25.8435 19.0367 24.9025C24.0522 20.6954 30.0323 14.4904 30.0323 8.80895C30.1169 6.56551 29.3102 4.37975 27.7885 2.72919C26.2667 1.07863 24.1535 0.0974491 21.9106 0Z" fill="white"/>
</svg>