<svg xmlns="http://www.w3.org/2000/svg" width="31" height="27" viewBox="0 0 31 27" fill="none">
<path d="M21.9005 -0.00311279C20.4935 0.0187725 19.1172 0.411546 17.9105 1.13554C16.7039 1.85954 15.7097 2.88912 15.0283 4.12032C14.3468 2.88912 13.3526 1.85954 12.146 1.13554C10.9393 0.411546 9.56303 0.0187725 8.15603 -0.00311279C5.91311 0.0943385 3.79992 1.07554 2.27813 2.72614C0.756341 4.37673 -0.0503458 6.56254 0.0343082 8.80603C0.0343082 14.4876 6.0144 20.6928 11.0299 24.8999C12.1497 25.841 13.5655 26.3569 15.0283 26.3569C16.491 26.3569 17.9068 25.841 19.0266 24.8999C24.0421 20.6928 30.0222 14.4876 30.0222 8.80603C30.1069 6.56254 29.3002 4.37673 27.7784 2.72614C26.2566 1.07554 24.1434 0.0943385 21.9005 -0.00311279ZM17.421 22.9881C16.7513 23.5521 15.9038 23.8614 15.0283 23.8614C14.1527 23.8614 13.3052 23.5521 12.6355 22.9881C6.21556 17.6014 2.5333 12.4334 2.5333 8.80603C2.44789 7.22503 2.99107 5.67439 4.04439 4.4923C5.09772 3.31021 6.57571 2.59259 8.15603 2.49594C9.73635 2.59259 11.2143 3.31021 12.2677 4.4923C13.321 5.67439 13.8642 7.22503 13.7788 8.80603C13.7788 9.13743 13.9104 9.45525 14.1447 9.68958C14.3791 9.92391 14.6969 10.0556 15.0283 10.0556C15.3596 10.0556 15.6775 9.92391 15.9118 9.68958C16.1461 9.45525 16.2778 9.13743 16.2778 8.80603C16.1923 7.22503 16.7355 5.67439 17.7888 4.4923C18.8422 3.31021 20.3202 2.59259 21.9005 2.49594C23.4808 2.59259 24.9588 3.31021 26.0121 4.4923C27.0654 5.67439 27.6086 7.22503 27.5232 8.80603C27.5232 12.4334 23.841 17.6014 17.421 22.9831V22.9881Z" fill="#C4C4C4"/>
</svg>