<svg xmlns="http://www.w3.org/2000/svg" width="33" height="33" viewBox="0 0 33 33" fill="none">
<path d="M26.9183 0.600006C25.0567 0.600006 23.5433 2.11471 23.5433 3.97501V19.8524C22.2581 18.7899 20.6111 18.15 18.8183 18.15C14.7251 18.15 11.3933 21.4805 11.3933 25.575C11.3933 29.6696 14.7251 33 18.8183 33C22.9115 33 26.2433 29.6696 26.2433 25.575V3.97501C26.2433 3.60241 26.5471 3.30001 26.9183 3.30001H32.9933V0.600006H26.9183ZM18.1433 3.30001H0.593323V0.600006H18.1433V3.30001ZM18.1433 11.4H0.593323V8.70001H18.1433V11.4ZM13.7815 16.8C12.5894 17.4858 11.5553 18.4065 10.7318 19.5H0.593323V16.8H13.7815Z" fill="white"/>
</svg>