<svg xmlns="http://www.w3.org/2000/svg" width="30" height="30" viewBox="0 0 33 33" fill="none">
<path d="M17.5833 2.7H0.0333252V0H17.5833V2.7ZM17.5833 8.1H0.0333252V10.8H17.5833V8.1ZM32.4333 0V2.7H26.3583C25.9871 2.7 25.6833 3.0024 25.6833 3.375V24.975C25.6833 29.0695 22.3515 32.4 18.2583 32.4C14.1651 32.4 10.8333 29.0695 10.8333 24.975C10.8333 20.8804 14.1651 17.55 18.2583 17.55C20.0511 17.55 21.6981 18.1899 22.9833 19.2523V3.375C22.9833 1.5147 24.4967 0 26.3583 0H32.4333ZM22.9833 24.975C22.9833 22.3695 20.8638 20.25 18.2583 20.25C15.6528 20.25 13.5333 22.3695 13.5333 24.975C13.5333 27.5805 15.6528 29.7 18.2583 29.7C20.8638 29.7 22.9833 27.5805 22.9833 24.975ZM13.2039 16.2H0.0333252V18.9H10.1583C10.9791 17.8078 12.0159 16.8858 13.2039 16.2Z" fill="#C4C4C4"/>
</svg>