<svg width="2.5em" height="2.5em" viewBox="0 0 50 50" fill="none" xmlns="http://www.w3.org/2000/svg">
<path d="M41.6027 39.6011L33.1535 31.152C35.456 28.336 36.5881 24.7427 36.3155 21.1154C36.043 17.4882 34.3867 14.1044 31.6893 11.6641C28.9919 9.22373 25.4597 7.91351 21.8233 8.00443C18.187 8.09535 14.7246 9.58045 12.1526 12.1526C9.58045 14.7246 8.09535 18.187 8.00443 21.8233C7.91351 25.4597 9.22373 28.9919 11.6641 31.6893C14.1044 34.3867 17.4882 36.043 21.1154 36.3155C24.7427 36.5881 28.336 35.456 31.152 33.1535L39.6011 41.6027C39.8681 41.8605 40.2257 42.0032 40.5968 41.9999C40.9679 41.9967 41.323 41.8479 41.5854 41.5854C41.8479 41.323 41.9967 40.9679 41.9999 40.5968C42.0032 40.2257 41.8605 39.8681 41.6027 39.6011ZM22.2003 33.5244C19.9607 33.5244 17.7713 32.8602 15.909 31.6159C14.0468 30.3716 12.5954 28.6031 11.7383 26.5339C10.8812 24.4647 10.657 22.1878 11.0939 19.9911C11.5308 17.7945 12.6094 15.7767 14.193 14.193C15.7767 12.6094 17.7945 11.5308 19.9911 11.0939C22.1878 10.657 24.4647 10.8812 26.5339 11.7383C28.6031 12.5954 30.3716 14.0468 31.6159 15.909C32.8602 17.7713 33.5244 19.9607 33.5244 22.2003C33.521 25.2026 32.3269 28.081 30.2039 30.2039C28.081 32.3269 25.2026 33.521 22.2003 33.5244Z" fill="#141D22"/>
</svg>
