<svg width="28" height="28" viewBox="0 0 31 31" fill="none" xmlns="http://www.w3.org/2000/svg">
<path d="M21.8072 21.0784L21.5209 21.4286L21.8407 21.7485L29.2924 29.2001C29.4272 29.3411 29.5017 29.5291 29.5 29.7242C29.4983 29.9206 29.4195 30.1084 29.2806 30.2473C29.1418 30.3862 28.9539 30.4649 28.7575 30.4666C28.5624 30.4683 28.3744 30.3938 28.2334 30.2591L20.7818 22.8074L20.4619 22.4875L20.1117 22.7739C17.7263 24.7243 14.6825 25.6832 11.6099 25.4524C8.5373 25.2215 5.67097 23.8185 3.60379 21.5335C1.5366 19.2486 0.426739 16.2565 0.503756 13.1762C0.580774 10.0959 1.83878 7.16303 4.01757 4.98424C6.19636 2.80546 9.12923 1.54745 12.2095 1.47043C15.2898 1.39341 18.2819 2.50328 20.5669 4.57046C22.8518 6.63764 24.2548 9.50398 24.4857 12.5766C24.7166 15.6492 23.7576 18.693 21.8072 21.0784ZM12.5297 23.9882H12.5303C15.3118 23.9851 17.9784 22.8787 19.9452 20.9119C21.9121 18.9451 23.0184 16.2784 23.0215 13.497V13.4964C23.0215 11.4213 22.4062 9.39283 21.2533 7.66746C20.1005 5.9421 18.4619 4.59734 16.5447 3.80324C14.6276 3.00914 12.5181 2.80137 10.4829 3.2062C8.44766 3.61102 6.5782 4.61027 5.1109 6.07757C3.6436 7.54488 2.64435 9.41434 2.23952 11.4495C1.83469 13.4848 2.04247 15.5943 2.83656 17.5114C3.63066 19.4285 4.97542 21.0671 6.70079 22.22C8.42615 23.3728 10.4546 23.9882 12.5297 23.9882Z" fill="#C4C4C4"/>
</svg>
