<svg width="28" height="28" viewBox="0 0 31 31" fill="none" xmlns="http://www.w3.org/2000/svg">
<path d="M29.7363 27.9144L22.2728 20.4509C24.3067 17.9635 25.3067 14.7894 25.066 11.5853C24.8252 8.38123 23.3622 5.39224 20.9795 3.2366C18.5967 1.08096 15.4766 -0.0763962 12.2645 0.00391688C9.05238 0.0842299 5.994 1.39607 3.72198 3.66809C1.44996 5.94011 0.138124 8.99848 0.0578109 12.2106C-0.0225021 15.4227 1.13486 18.5428 3.29049 20.9256C5.44613 23.3083 8.43512 24.7713 11.6392 25.0121C14.8433 25.2528 18.0174 24.2528 20.5048 22.219L27.9682 29.6824C28.2041 29.9101 28.5199 30.0362 28.8478 30.0333C29.1756 30.0305 29.4892 29.899 29.721 29.6671C29.9529 29.4353 30.0844 29.1217 30.0872 28.7939C30.0901 28.466 29.964 28.1502 29.7363 27.9144ZM12.5975 22.5465C10.6192 22.5465 8.68519 21.9599 7.04023 20.8608C5.39526 19.7616 4.11316 18.1994 3.35607 16.3716C2.59897 14.5438 2.40088 12.5325 2.78684 10.5922C3.17281 8.6518 4.12549 6.86946 5.52442 5.47053C6.92335 4.0716 8.7057 3.11891 10.6461 2.73295C12.5864 2.34699 14.5977 2.54508 16.4255 3.30217C18.2533 4.05927 19.8155 5.34136 20.9146 6.98633C22.0138 8.6313 22.6004 10.5653 22.6004 12.5436C22.5975 15.1957 21.5426 17.7382 19.6674 19.6135C17.7921 21.4887 15.2496 22.5436 12.5975 22.5465Z" fill="white"/>
</svg>
